<svg width="700" height="334" viewBox="0 0 700 334" fill="none" xmlns="http://www.w3.org/2000/svg">
<g clip-path="url(#clip0_139_957)">
<path d="M-11.4972 61.1445L209.893 61.1445C211.581 61.1445 213.199 61.8233 214.381 63.0283L295.09 145.259" stroke="#262626" stroke-width="0.786121"/>
<path d="M-9.92492 58L211.465 58C213.153 58 214.771 58.6788 215.953 59.8837L296.662 142.115" stroke="#262626" stroke-width="0.786121"/>
<path d="M-9.92492 58L211.465 58C213.153 58 214.771 58.6788 215.953 59.8837L296.662 142.115" stroke="url(#paint0_linear_139_957)" stroke-width="0.786121"/>
<path d="M-13.0694 64.289L208.321 64.2891C210.009 64.2891 211.626 64.9679 212.809 66.1728L293.518 148.404" stroke="#262626" stroke-width="0.786121"/>
<path d="M-13.0694 64.289L208.321 64.2891C210.009 64.2891 211.626 64.9679 212.809 66.1728L293.518 148.404" stroke="url(#paint1_linear_139_957)" stroke-width="0.786121"/>
<path d="M-15.4277 67.4333L205.962 67.4333C207.651 67.4333 209.268 68.1122 210.451 69.3171L291.159 151.548" stroke="#262626" stroke-width="0.786121"/>
<path d="M-17 70.5779L204.39 70.5779C206.078 70.5779 207.696 71.2567 208.878 72.4616L289.587 154.693" stroke="#262626" stroke-width="0.786121"/>
<path d="M-17 70.5779L204.39 70.5779C206.078 70.5779 207.696 71.2567 208.878 72.4616L289.587 154.693" stroke="url(#paint2_linear_139_957)" stroke-width="0.786121"/>
<path d="M-11.4971 273.397L209.893 273.397C211.581 273.397 213.199 272.718 214.381 271.513L295.09 189.282" stroke="#262626" stroke-width="0.786121"/>
<path d="M-9.92492 276.541L211.465 276.542C213.153 276.542 214.771 275.863 215.953 274.658L296.662 192.427" stroke="#262626" stroke-width="0.786121"/>
<path d="M-9.92492 276.541L211.465 276.542C213.153 276.542 214.771 275.863 215.953 274.658L296.662 192.427" stroke="url(#paint3_linear_139_957)" stroke-width="0.786121"/>
<path d="M-13.0694 270.252L208.321 270.252C210.009 270.252 211.626 269.574 212.809 268.369L293.518 186.138" stroke="#262626" stroke-width="0.786121"/>
<path d="M-13.0694 270.252L208.321 270.252C210.009 270.252 211.626 269.574 212.809 268.369L293.518 186.138" stroke="url(#paint4_linear_139_957)" stroke-width="0.786121"/>
<path d="M-14.6417 267.108L206.748 267.108C208.437 267.108 210.054 266.429 211.237 265.224L291.945 182.993" stroke="#262626" stroke-width="0.786121"/>
<path d="M-17 263.964L204.39 263.964C206.078 263.964 207.696 263.285 208.878 262.08L289.587 179.849" stroke="#262626" stroke-width="0.786121"/>
<path d="M-17 263.964L204.39 263.964C206.078 263.964 207.696 263.285 208.878 262.08L289.587 179.849" stroke="url(#paint5_linear_139_957)" stroke-width="0.786121"/>
<path d="M286 160.982L-41.4192 160.982" stroke="url(#paint6_linear_139_957)" stroke-width="0.786121"/>
<path d="M286 164.126L-41.4193 164.126" stroke="#262626" stroke-width="0.786121"/>
<path d="M286 167.271L-41.4193 167.271" stroke="url(#paint7_linear_139_957)" stroke-width="0.786121"/>
<path d="M286 170.415L-41.4193 170.415" stroke="url(#paint8_linear_139_957)" stroke-width="0.786121"/>
<path d="M286 173.56L-41.4193 173.56" stroke="#262626" stroke-width="0.786121"/>
<path d="M700 148.404L372.581 148.404" stroke="#262626" stroke-width="0.786121"/>
<path d="M700 148.404L372.581 148.404" stroke="url(#paint9_linear_139_957)" stroke-width="0.786121"/>
<path d="M700 151.548L372.581 151.548" stroke="#262626" stroke-width="0.786121"/>
<path d="M700 154.693L372.581 154.693" stroke="#262626" stroke-width="0.786121"/>
<path d="M700 157.837L372.581 157.837" stroke="#262626" stroke-width="0.786121"/>
<path d="M700 157.837L372.581 157.837" stroke="url(#paint10_linear_139_957)" stroke-width="0.786121"/>
<path d="M700 160.982L372.581 160.982" stroke="#262626" stroke-width="0.786121"/>
<path d="M700 164.126L372.581 164.126" stroke="#262626" stroke-width="0.786121"/>
<path d="M700 167.271L372.581 167.271" stroke="#262626" stroke-width="0.786121"/>
<path d="M700 170.415L372.581 170.415" stroke="#262626" stroke-width="0.786121"/>
<path d="M700 170.415L372.581 170.415" stroke="url(#paint11_linear_139_957)" stroke-width="0.786121"/>
<path d="M700 173.56L372.581 173.56" stroke="#262626" stroke-width="0.786121"/>
<path d="M700 176.704L372.581 176.704" stroke="#262626" stroke-width="0.786121"/>
<path d="M700 176.704L372.581 176.704" stroke="url(#paint12_linear_139_957)" stroke-width="0.786121"/>
<path d="M700 179.849L372.581 179.849" stroke="#262626" stroke-width="0.786121"/>
<path d="M700 182.993L372.581 182.993" stroke="#262626" stroke-width="0.786121"/>
<path d="M700 186.138L372.581 186.138" stroke="#262626" stroke-width="0.786121"/>
<path d="M700 186.138L372.581 186.138" stroke="url(#paint13_linear_139_957)" stroke-width="0.786121"/>
<g filter="url(#filter0_dd_139_957)">
<g filter="url(#filter1_i_139_957)">
<rect x="277" y="94" width="146.218" height="146.218" rx="73.1092" fill="url(#paint14_linear_139_957)"/>
</g>
<path fill-rule="evenodd" clip-rule="evenodd" d="M350 155.831L337.03 178.233H343.971L340.676 184H327L349.772 144.396L350 144L350.228 144.396L373 184H359.324L356.029 178.233H362.97L350 155.831Z" fill="black"/>
</g>
</g>
<defs>
<filter id="filter0_dd_139_957" x="166.943" y="-15.4399" width="366.332" height="366.332" filterUnits="userSpaceOnUse" color-interpolation-filters="sRGB">
<feFlood flood-opacity="0" result="BackgroundImageFix"/>
<feColorMatrix in="SourceAlpha" type="matrix" values="0 0 0 0 0 0 0 0 0 0 0 0 0 0 0 0 0 0 127 0" result="hardAlpha"/>
<feOffset dy="1.85087"/>
<feGaussianBlur stdDeviation="1.85087"/>
<feComposite in2="hardAlpha" operator="out"/>
<feColorMatrix type="matrix" values="0 0 0 0 0 0 0 0 0 0 0 0 0 0 0 0 0 0 0.1 0"/>
<feBlend mode="normal" in2="BackgroundImageFix" result="effect1_dropShadow_139_957"/>
<feColorMatrix in="SourceAlpha" type="matrix" values="0 0 0 0 0 0 0 0 0 0 0 0 0 0 0 0 0 0 127 0" result="hardAlpha"/>
<feOffset dy="0.616955"/>
<feGaussianBlur stdDeviation="55.0284"/>
<feComposite in2="hardAlpha" operator="out"/>
<feColorMatrix type="matrix" values="0 0 0 0 0 0 0 0 0 0 0 0 0 0 0 0 0 0 0.12 0"/>
<feBlend mode="normal" in2="effect1_dropShadow_139_957" result="effect2_dropShadow_139_957"/>
<feBlend mode="normal" in="SourceGraphic" in2="effect2_dropShadow_139_957" result="shape"/>
</filter>
<filter id="filter1_i_139_957" x="277" y="94" width="146.218" height="151.897" filterUnits="userSpaceOnUse" color-interpolation-filters="sRGB">
<feFlood flood-opacity="0" result="BackgroundImageFix"/>
<feBlend mode="normal" in="SourceGraphic" in2="BackgroundImageFix" result="shape"/>
<feColorMatrix in="SourceAlpha" type="matrix" values="0 0 0 0 0 0 0 0 0 0 0 0 0 0 0 0 0 0 127 0" result="hardAlpha"/>
<feOffset dy="5.67849"/>
<feGaussianBlur stdDeviation="12.6189"/>
<feComposite in2="hardAlpha" operator="arithmetic" k2="-1" k3="1"/>
<feColorMatrix type="matrix" values="0 0 0 0 0 0 0 0 0 0 0 0 0 0 0 0 0 0 0.2 0"/>
<feBlend mode="normal" in2="shape" result="effect1_innerShadow_139_957"/>
</filter>
<linearGradient id="paint0_linear_139_957" x1="296.662" y1="100.057" x2="-9.92493" y2="100.057" gradientUnits="userSpaceOnUse">
<stop offset="0.498287" stop-color="#262626"/>
<stop offset="0.508464" stop-color="white"/>
<stop offset="0.561607" stop-color="#262626"/>
</linearGradient>
<linearGradient id="paint1_linear_139_957" x1="293.518" y1="106.347" x2="-13.0694" y2="106.347" gradientUnits="userSpaceOnUse">
<stop offset="0.338606" stop-color="#262626"/>
<stop offset="0.34612" stop-color="white"/>
<stop offset="0.473986" stop-color="#262626"/>
</linearGradient>
<linearGradient id="paint2_linear_139_957" x1="289.587" y1="112.635" x2="-17" y2="112.635" gradientUnits="userSpaceOnUse">
<stop offset="0.298152" stop-color="#262626"/>
<stop offset="0.308328" stop-color="white"/>
<stop offset="0.380128" stop-color="#262626"/>
</linearGradient>
<linearGradient id="paint3_linear_139_957" x1="296.662" y1="234.484" x2="-9.92492" y2="234.484" gradientUnits="userSpaceOnUse">
<stop offset="0.338606" stop-color="#262626"/>
<stop offset="0.34612" stop-color="white"/>
<stop offset="0.473986" stop-color="#262626"/>
</linearGradient>
<linearGradient id="paint4_linear_139_957" x1="293.518" y1="228.195" x2="-13.0694" y2="228.195" gradientUnits="userSpaceOnUse">
<stop offset="0.498287" stop-color="#262626"/>
<stop offset="0.508464" stop-color="white"/>
<stop offset="0.561607" stop-color="#262626"/>
</linearGradient>
<linearGradient id="paint5_linear_139_957" x1="289.587" y1="221.906" x2="-17" y2="221.906" gradientUnits="userSpaceOnUse">
<stop offset="0.298152" stop-color="#262626"/>
<stop offset="0.308328" stop-color="white"/>
<stop offset="0.380128" stop-color="#262626"/>
</linearGradient>
<linearGradient id="paint6_linear_139_957" x1="286" y1="161.482" x2="-41.4192" y2="161.482" gradientUnits="userSpaceOnUse">
<stop offset="0.298152" stop-color="#262626"/>
<stop offset="0.308328" stop-color="white"/>
<stop offset="0.380128" stop-color="#262626"/>
</linearGradient>
<linearGradient id="paint7_linear_139_957" x1="286" y1="167.771" x2="-41.4193" y2="167.771" gradientUnits="userSpaceOnUse">
<stop offset="0.338606" stop-color="#262626"/>
<stop offset="0.34612" stop-color="white"/>
<stop offset="0.473986" stop-color="#262626"/>
</linearGradient>
<linearGradient id="paint8_linear_139_957" x1="286" y1="170.915" x2="-41.4193" y2="170.915" gradientUnits="userSpaceOnUse">
<stop offset="0.498287" stop-color="#262626"/>
<stop offset="0.508464" stop-color="white"/>
<stop offset="0.561607" stop-color="#262626"/>
</linearGradient>
<linearGradient id="paint9_linear_139_957" x1="700" y1="148.904" x2="372.581" y2="148.904" gradientUnits="userSpaceOnUse">
<stop offset="0.592821" stop-color="#262626"/>
<stop offset="0.605089" stop-color="white"/>
<stop offset="0.683414" stop-color="#262626"/>
</linearGradient>
<linearGradient id="paint10_linear_139_957" x1="700" y1="158.337" x2="372.581" y2="158.337" gradientUnits="userSpaceOnUse">
<stop offset="0.501284" stop-color="#262626"/>
<stop offset="0.512608" stop-color="white"/>
<stop offset="0.638117" stop-color="#262626"/>
</linearGradient>
<linearGradient id="paint11_linear_139_957" x1="700" y1="170.915" x2="372.581" y2="170.915" gradientUnits="userSpaceOnUse">
<stop offset="0.430508" stop-color="#262626"/>
<stop offset="0.437113" stop-color="white"/>
<stop offset="0.638117" stop-color="#262626"/>
</linearGradient>
<linearGradient id="paint12_linear_139_957" x1="700" y1="177.204" x2="372.581" y2="177.204" gradientUnits="userSpaceOnUse">
<stop offset="0.362562" stop-color="#262626"/>
<stop offset="0.37483" stop-color="white"/>
<stop offset="0.505058" stop-color="#262626"/>
</linearGradient>
<linearGradient id="paint13_linear_139_957" x1="700" y1="186.638" x2="372.581" y2="186.638" gradientUnits="userSpaceOnUse">
<stop offset="0.592821" stop-color="#262626"/>
<stop offset="0.605089" stop-color="white"/>
<stop offset="0.683414" stop-color="#262626"/>
</linearGradient>
<linearGradient id="paint14_linear_139_957" x1="350.109" y1="240.218" x2="350.109" y2="94" gradientUnits="userSpaceOnUse">
<stop stop-color="#2DD4BF"/>
<stop offset="1" stop-color="#2DD4BF"/>
</linearGradient>
<clipPath id="clip0_139_957">
<rect width="700" height="334" fill="white"/>
</clipPath>
</defs>
</svg>
