<svg width="700" height="334" viewBox="0 0 700 334" fill="none" xmlns="http://www.w3.org/2000/svg">
<g clip-path="url(#clip0_139_1000)">
<path opacity="0.2" d="M252.363 82.7381C249.301 77.2396 242.342 75.2385 237.016 78.5914C209.09 96.1717 185.606 120.06 168.492 148.396C151.377 176.733 141.164 208.636 138.601 241.536C138.112 247.81 143.122 253.038 149.414 253.189C155.706 253.34 160.893 248.356 161.422 242.084C163.864 213.154 172.938 185.119 188 160.179C203.063 135.24 223.654 114.161 248.123 98.5346C253.428 95.1472 255.425 88.2365 252.363 82.7381Z" fill="#2DD4BF"/>
<path opacity="0.2" d="M438.817 78.1481C441.605 72.5056 439.302 65.6413 433.517 63.1608C406.992 51.7855 378.384 45.9299 349.443 46.0006C320.502 46.0713 291.923 52.0665 265.453 63.5713C259.682 66.0801 257.412 72.9556 260.227 78.5844C263.042 84.2132 269.875 86.4599 275.663 83.9886C298.971 74.0369 324.078 68.8536 349.499 68.7915C374.919 68.7294 400.052 73.79 423.407 83.6277C429.207 86.0707 436.03 83.7906 438.817 78.1481Z" fill="#2DD4BF"/>
<path d="M550.565 258C556.859 258 561.993 252.894 561.655 246.61C559.817 212.454 549.737 179.189 532.204 149.688C514.671 120.187 490.269 95.4336 461.145 77.4948C455.786 74.1942 448.848 76.2633 445.84 81.7915C442.832 87.3197 444.896 94.2106 450.233 97.5458C475.767 113.502 497.173 135.355 512.612 161.332C528.051 187.309 537.015 216.556 538.827 246.611C539.206 252.893 544.272 258 550.565 258Z" fill="#2DD4BF"/>
<g filter="url(#filter0_i_139_1000)">
<path d="M348.16 215.602L470.632 191.357C472.519 190.983 474.399 192.031 475.074 193.832C475.821 195.826 474.843 198.052 472.87 198.851L357.15 245.715C348.439 249.242 338.594 244.423 336.037 235.379C333.53 226.511 339.121 217.391 348.16 215.602Z" fill="#2DD4BF"/>
</g>
<circle cx="350.015" cy="231.225" r="10.6445" transform="rotate(58.9686 350.015 231.225)" fill="black"/>
<circle cx="533.425" cy="179.447" r="13.798" fill="black" stroke="#2DD4BF" stroke-width="2.7184"/>
<circle cx="533.427" cy="179.447" r="8.76938" fill="#2DD4BF"/>
<path d="M169.046 251.287V242.483H170.225V251.287H169.046ZM167.244 243.548V242.483H170.099V243.548H167.244ZM171.668 250.564L174.915 247.138C175.245 246.8 175.503 246.508 175.689 246.263C175.875 246.009 176.006 245.777 176.082 245.565C176.167 245.354 176.209 245.134 176.209 244.906C176.209 244.457 176.065 244.106 175.778 243.853C175.49 243.599 175.118 243.472 174.661 243.472C174.213 243.472 173.82 243.582 173.482 243.802C173.143 244.013 172.843 244.343 172.581 244.791L171.744 244.094C172.09 243.519 172.509 243.087 173 242.8C173.49 242.504 174.057 242.356 174.7 242.356C175.241 242.356 175.71 242.461 176.108 242.673C176.514 242.884 176.827 243.18 177.046 243.561C177.266 243.941 177.376 244.386 177.376 244.893C177.376 245.257 177.33 245.582 177.237 245.87C177.152 246.157 176.996 246.453 176.767 246.758C176.547 247.054 176.239 247.409 175.841 247.823L173.215 250.525L171.668 250.564ZM171.668 251.287V250.564L172.682 250.221H177.579V251.287H171.668ZM180.865 251.413C180.527 251.413 180.205 251.371 179.901 251.287C179.605 251.194 179.33 251.067 179.076 250.906C178.823 250.737 178.603 250.538 178.417 250.31L179.152 249.574C179.372 249.845 179.626 250.048 179.914 250.183C180.201 250.31 180.523 250.373 180.878 250.373C181.233 250.373 181.508 250.314 181.702 250.196C181.897 250.069 181.994 249.895 181.994 249.676C181.994 249.456 181.914 249.286 181.753 249.168C181.601 249.041 181.402 248.94 181.157 248.864C180.912 248.779 180.649 248.699 180.37 248.623C180.1 248.538 179.842 248.432 179.596 248.305C179.351 248.179 179.148 248.005 178.988 247.785C178.835 247.565 178.759 247.274 178.759 246.91C178.759 246.546 178.848 246.233 179.026 245.971C179.203 245.701 179.448 245.493 179.761 245.35C180.083 245.206 180.468 245.134 180.916 245.134C181.389 245.134 181.808 245.219 182.172 245.388C182.544 245.548 182.848 245.794 183.085 246.123L182.349 246.859C182.18 246.639 181.969 246.47 181.715 246.352C181.47 246.233 181.191 246.174 180.878 246.174C180.548 246.174 180.294 246.233 180.117 246.352C179.947 246.462 179.863 246.618 179.863 246.821C179.863 247.024 179.939 247.181 180.091 247.291C180.243 247.401 180.442 247.494 180.687 247.57C180.941 247.646 181.203 247.726 181.474 247.811C181.745 247.887 182.003 247.993 182.248 248.128C182.493 248.263 182.692 248.445 182.844 248.673C183.005 248.902 183.085 249.202 183.085 249.574C183.085 250.141 182.882 250.589 182.476 250.919C182.079 251.249 181.542 251.413 180.865 251.413ZM187.002 251.287V242.229H188.144V251.287H187.002ZM192.567 251.413C191.975 251.413 191.442 251.274 190.969 250.995C190.495 250.716 190.119 250.339 189.84 249.866C189.561 249.384 189.421 248.847 189.421 248.255C189.421 247.671 189.561 247.147 189.84 246.682C190.119 246.208 190.495 245.832 190.969 245.553C191.442 245.274 191.975 245.134 192.567 245.134C193.151 245.134 193.679 245.274 194.153 245.553C194.635 245.823 195.015 246.195 195.295 246.669C195.574 247.143 195.713 247.671 195.713 248.255C195.713 248.847 195.574 249.384 195.295 249.866C195.015 250.339 194.635 250.716 194.153 250.995C193.679 251.274 193.151 251.413 192.567 251.413ZM192.567 250.31C192.948 250.31 193.286 250.221 193.582 250.043C193.878 249.866 194.111 249.625 194.28 249.32C194.449 249.007 194.533 248.652 194.533 248.255C194.533 247.866 194.445 247.519 194.267 247.214C194.098 246.91 193.865 246.673 193.569 246.504C193.282 246.326 192.948 246.238 192.567 246.238C192.187 246.238 191.848 246.326 191.552 246.504C191.256 246.673 191.024 246.91 190.855 247.214C190.685 247.519 190.601 247.866 190.601 248.255C190.601 248.652 190.685 249.007 190.855 249.32C191.024 249.625 191.256 249.866 191.552 250.043C191.848 250.221 192.187 250.31 192.567 250.31ZM199.752 251.413C199.16 251.413 198.628 251.274 198.154 250.995C197.68 250.716 197.304 250.339 197.025 249.866C196.746 249.384 196.606 248.847 196.606 248.255C196.606 247.671 196.746 247.147 197.025 246.682C197.304 246.208 197.68 245.832 198.154 245.553C198.628 245.274 199.16 245.134 199.752 245.134C200.336 245.134 200.865 245.274 201.338 245.553C201.82 245.823 202.201 246.195 202.48 246.669C202.759 247.143 202.899 247.671 202.899 248.255C202.899 248.847 202.759 249.384 202.48 249.866C202.201 250.339 201.82 250.716 201.338 250.995C200.865 251.274 200.336 251.413 199.752 251.413ZM199.752 250.31C200.133 250.31 200.471 250.221 200.767 250.043C201.063 249.866 201.296 249.625 201.465 249.32C201.634 249.007 201.719 248.652 201.719 248.255C201.719 247.866 201.63 247.519 201.452 247.214C201.283 246.91 201.051 246.673 200.755 246.504C200.467 246.326 200.133 246.238 199.752 246.238C199.372 246.238 199.034 246.326 198.738 246.504C198.442 246.673 198.209 246.91 198.04 247.214C197.871 247.519 197.786 247.866 197.786 248.255C197.786 248.652 197.871 249.007 198.04 249.32C198.209 249.625 198.442 249.866 198.738 250.043C199.034 250.221 199.372 250.31 199.752 250.31ZM208.041 251.287L205.225 248.204L208.016 245.261H209.399L206.291 248.508L206.342 247.849L209.513 251.287H208.041ZM204.185 251.287V242.229H205.327V251.287H204.185ZM212.703 251.413C212.213 251.413 211.769 251.304 211.371 251.084C210.982 250.855 210.678 250.542 210.458 250.145C210.238 249.747 210.128 249.286 210.128 248.762V245.261H211.27V248.711C211.27 249.041 211.325 249.329 211.435 249.574C211.553 249.811 211.722 249.993 211.942 250.12C212.162 250.246 212.42 250.31 212.716 250.31C213.164 250.31 213.515 250.17 213.769 249.891C214.022 249.604 214.149 249.21 214.149 248.711V245.261H215.291V248.762C215.291 249.286 215.181 249.747 214.961 250.145C214.741 250.542 214.437 250.855 214.048 251.084C213.667 251.304 213.219 251.413 212.703 251.413ZM219.993 251.413C219.536 251.413 219.122 251.32 218.75 251.134C218.386 250.94 218.094 250.673 217.874 250.335C217.654 249.997 217.532 249.612 217.506 249.181V247.367C217.532 246.927 217.654 246.542 217.874 246.212C218.103 245.874 218.399 245.612 218.762 245.426C219.134 245.231 219.545 245.134 219.993 245.134C220.543 245.134 221.037 245.274 221.477 245.553C221.925 245.832 222.276 246.208 222.53 246.682C222.784 247.155 222.911 247.688 222.911 248.28C222.911 248.872 222.784 249.405 222.53 249.878C222.276 250.352 221.925 250.728 221.477 251.008C221.037 251.278 220.543 251.413 219.993 251.413ZM216.821 253.811V245.261H217.963V246.847L217.747 248.305L217.963 249.777V253.811H216.821ZM219.802 250.335C220.183 250.335 220.517 250.246 220.805 250.069C221.092 249.891 221.321 249.65 221.49 249.346C221.659 249.033 221.743 248.673 221.743 248.267C221.743 247.87 221.659 247.515 221.49 247.202C221.321 246.889 221.092 246.648 220.805 246.479C220.517 246.301 220.187 246.212 219.815 246.212C219.435 246.212 219.101 246.301 218.813 246.479C218.525 246.648 218.301 246.889 218.141 247.202C217.98 247.515 217.9 247.874 217.9 248.28C217.9 248.678 217.976 249.033 218.128 249.346C218.289 249.65 218.513 249.891 218.8 250.069C219.096 250.246 219.43 250.335 219.802 250.335ZM227.77 251.287V242.736H228.911V251.287H227.77ZM226.285 246.301V245.261H230.396V246.301H226.285ZM231.527 251.287V245.261H232.669V251.287H231.527ZM232.098 244.056C231.886 244.056 231.713 243.988 231.578 243.853C231.442 243.709 231.375 243.531 231.375 243.32C231.375 243.117 231.442 242.948 231.578 242.812C231.713 242.669 231.886 242.597 232.098 242.597C232.309 242.597 232.482 242.669 232.618 242.812C232.753 242.948 232.821 243.117 232.821 243.32C232.821 243.531 232.753 243.709 232.618 243.853C232.482 243.988 232.309 244.056 232.098 244.056ZM234.351 251.287V245.261H235.493V251.287H234.351ZM238.423 251.287V247.646C238.423 247.198 238.284 246.847 238.005 246.593C237.734 246.331 237.391 246.2 236.977 246.2C236.698 246.2 236.449 246.259 236.229 246.377C236.009 246.496 235.831 246.661 235.696 246.872C235.561 247.083 235.493 247.337 235.493 247.633L235.023 247.405C235.023 246.948 235.121 246.551 235.315 246.212C235.518 245.874 235.793 245.612 236.14 245.426C236.487 245.231 236.876 245.134 237.307 245.134C237.73 245.134 238.11 245.227 238.449 245.413C238.795 245.599 239.066 245.861 239.261 246.2C239.464 246.538 239.565 246.94 239.565 247.405V251.287H238.423ZM242.495 251.287V247.646C242.495 247.198 242.356 246.847 242.077 246.593C241.806 246.331 241.468 246.2 241.062 246.2C240.783 246.2 240.529 246.259 240.301 246.377C240.081 246.496 239.903 246.661 239.768 246.872C239.633 247.083 239.565 247.337 239.565 247.633L238.918 247.405C238.943 246.94 239.066 246.542 239.286 246.212C239.514 245.874 239.806 245.612 240.161 245.426C240.516 245.231 240.905 245.134 241.328 245.134C241.768 245.134 242.161 245.227 242.508 245.413C242.855 245.599 243.13 245.861 243.333 246.2C243.544 246.538 243.65 246.944 243.65 247.417V251.287H242.495ZM247.994 251.413C247.394 251.413 246.853 251.278 246.371 251.008C245.889 250.728 245.508 250.352 245.229 249.878C244.95 249.405 244.81 248.868 244.81 248.267C244.81 247.675 244.946 247.143 245.216 246.669C245.495 246.195 245.867 245.823 246.333 245.553C246.806 245.274 247.335 245.134 247.918 245.134C248.476 245.134 248.967 245.261 249.39 245.515C249.821 245.768 250.155 246.119 250.392 246.567C250.637 247.016 250.76 247.523 250.76 248.09C250.76 248.174 250.756 248.267 250.747 248.369C250.739 248.462 250.722 248.572 250.696 248.699H245.609V247.747H250.088L249.669 248.115C249.669 247.709 249.597 247.367 249.453 247.088C249.309 246.8 249.107 246.58 248.844 246.428C248.582 246.267 248.265 246.187 247.893 246.187C247.504 246.187 247.161 246.271 246.865 246.441C246.569 246.61 246.341 246.847 246.18 247.151C246.02 247.455 245.939 247.815 245.939 248.229C245.939 248.652 246.024 249.024 246.193 249.346C246.362 249.659 246.603 249.904 246.916 250.081C247.229 250.251 247.588 250.335 247.994 250.335C248.333 250.335 248.641 250.276 248.92 250.158C249.208 250.039 249.453 249.862 249.656 249.625L250.392 250.373C250.104 250.712 249.749 250.969 249.326 251.147C248.912 251.325 248.468 251.413 247.994 251.413Z" fill="#737373"/>
<path d="M346.146 87.4005C345.546 87.4005 345.009 87.2948 344.535 87.0834C344.07 86.8635 343.677 86.5464 343.355 86.132L344.167 85.3201C344.362 85.6161 344.628 85.8529 344.966 86.0305C345.313 86.1996 345.698 86.2842 346.121 86.2842C346.518 86.2842 346.865 86.2081 347.161 86.0558C347.465 85.9036 347.702 85.6922 347.871 85.4215C348.049 85.1425 348.138 84.8126 348.138 84.432C348.138 84.043 348.053 83.7132 347.884 83.4425C347.715 83.1719 347.487 82.9689 347.199 82.8336C346.92 82.6899 346.611 82.618 346.273 82.618C345.926 82.618 345.609 82.6603 345.322 82.7448C345.042 82.8294 344.776 82.9732 344.522 83.1761L344.535 82.415C344.679 82.2374 344.844 82.0936 345.03 81.9837C345.216 81.8737 345.427 81.7892 345.664 81.73C345.901 81.6708 346.176 81.6412 346.489 81.6412C347.098 81.6412 347.613 81.768 348.036 82.0217C348.459 82.2754 348.781 82.618 349 83.0493C349.229 83.4806 349.343 83.9627 349.343 84.4955C349.343 85.0537 349.203 85.5526 348.924 85.9924C348.654 86.4322 348.277 86.7789 347.795 87.0326C347.313 87.2779 346.763 87.4005 346.146 87.4005ZM344.522 83.1761L343.875 82.5292L344.269 78.4697H345.36L344.916 82.6433L344.522 83.1761ZM344.51 79.5353L344.269 78.4697H348.899V79.5353H344.51ZM352.616 87.4005C352.278 87.4005 351.956 87.3583 351.652 87.2737C351.356 87.1807 351.081 87.0538 350.827 86.8931C350.574 86.724 350.354 86.5252 350.168 86.2969L350.904 85.5611C351.123 85.8317 351.377 86.0347 351.665 86.17C351.952 86.2969 352.274 86.3603 352.629 86.3603C352.984 86.3603 353.259 86.3011 353.453 86.1827C353.648 86.0558 353.745 85.8825 353.745 85.6626C353.745 85.4427 353.665 85.2735 353.504 85.1551C353.352 85.0283 353.153 84.9268 352.908 84.8507C352.663 84.7661 352.4 84.6858 352.121 84.6096C351.851 84.5251 351.593 84.4194 351.348 84.2925C351.102 84.1656 350.899 83.9923 350.739 83.7724C350.586 83.5525 350.51 83.2607 350.51 82.8971C350.51 82.5334 350.599 82.2205 350.777 81.9583C350.954 81.6877 351.2 81.4805 351.512 81.3367C351.834 81.1929 352.219 81.121 352.667 81.121C353.14 81.121 353.559 81.2056 353.923 81.3747C354.295 81.5354 354.599 81.7807 354.836 82.1105L354.1 82.8463C353.931 82.6264 353.72 82.4573 353.466 82.3389C353.221 82.2205 352.942 82.1613 352.629 82.1613C352.299 82.1613 352.045 82.2205 351.868 82.3389C351.698 82.4488 351.614 82.6053 351.614 82.8083C351.614 83.0112 351.69 83.1677 351.842 83.2776C351.994 83.3876 352.193 83.4806 352.438 83.5567C352.692 83.6328 352.954 83.7132 353.225 83.7978C353.496 83.8739 353.754 83.9796 353.999 84.1149C354.244 84.2502 354.443 84.432 354.595 84.6604C354.756 84.8887 354.836 85.189 354.836 85.5611C354.836 86.1277 354.633 86.576 354.227 86.9058C353.83 87.2356 353.293 87.4005 352.616 87.4005Z" fill="#737373"/>
<path d="M462.576 253.226C462.001 253.226 461.477 253.12 461.003 252.909C460.538 252.689 460.145 252.372 459.824 251.957L460.635 251.145C460.83 251.441 461.096 251.678 461.435 251.856C461.773 252.025 462.149 252.109 462.564 252.109C462.953 252.109 463.287 252.037 463.566 251.894C463.853 251.741 464.078 251.53 464.238 251.259C464.407 250.989 464.492 250.676 464.492 250.321C464.492 249.957 464.407 249.644 464.238 249.382C464.078 249.111 463.849 248.904 463.553 248.76C463.257 248.617 462.906 248.545 462.5 248.545C462.348 248.545 462.196 248.557 462.044 248.583C461.891 248.6 461.743 248.629 461.6 248.672L462.107 247.986C462.268 247.91 462.441 247.851 462.627 247.809C462.813 247.767 462.999 247.745 463.185 247.745C463.659 247.745 464.082 247.855 464.454 248.075C464.834 248.295 465.135 248.604 465.355 249.001C465.583 249.399 465.697 249.86 465.697 250.384C465.697 250.942 465.562 251.437 465.291 251.868C465.029 252.291 464.665 252.625 464.2 252.871C463.735 253.107 463.194 253.226 462.576 253.226ZM461.6 248.672V247.948L464.175 245.018L465.596 245.005L462.944 248.012L461.6 248.672ZM460.242 245.36V244.295H465.596V245.005L464.555 245.36H460.242ZM469.022 253.226C468.684 253.226 468.362 253.183 468.058 253.099C467.762 253.006 467.487 252.879 467.233 252.718C466.979 252.549 466.76 252.35 466.574 252.122L467.309 251.386C467.529 251.657 467.783 251.86 468.07 251.995C468.358 252.122 468.679 252.185 469.035 252.185C469.39 252.185 469.665 252.126 469.859 252.008C470.054 251.881 470.151 251.708 470.151 251.488C470.151 251.268 470.071 251.099 469.91 250.98C469.758 250.853 469.559 250.752 469.314 250.676C469.068 250.591 468.806 250.511 468.527 250.435C468.257 250.35 467.999 250.245 467.753 250.118C467.508 249.991 467.305 249.817 467.144 249.598C466.992 249.378 466.916 249.086 466.916 248.722C466.916 248.359 467.005 248.046 467.182 247.783C467.36 247.513 467.605 247.306 467.918 247.162C468.24 247.018 468.624 246.946 469.073 246.946C469.546 246.946 469.965 247.031 470.329 247.2C470.701 247.361 471.005 247.606 471.242 247.936L470.506 248.672C470.337 248.452 470.126 248.282 469.872 248.164C469.627 248.046 469.348 247.986 469.035 247.986C468.705 247.986 468.451 248.046 468.273 248.164C468.104 248.274 468.02 248.43 468.02 248.633C468.02 248.836 468.096 248.993 468.248 249.103C468.4 249.213 468.599 249.306 468.844 249.382C469.098 249.458 469.36 249.538 469.631 249.623C469.901 249.699 470.159 249.805 470.405 249.94C470.65 250.075 470.849 250.257 471.001 250.486C471.162 250.714 471.242 251.014 471.242 251.386C471.242 251.953 471.039 252.401 470.633 252.731C470.236 253.061 469.698 253.226 469.022 253.226ZM475.159 253.099V244.041H476.301V253.099H475.159ZM477.984 253.099V247.073H479.126V253.099H477.984ZM478.555 245.868C478.343 245.868 478.17 245.8 478.035 245.665C477.899 245.521 477.832 245.344 477.832 245.132C477.832 244.929 477.899 244.76 478.035 244.625C478.17 244.481 478.343 244.409 478.555 244.409C478.766 244.409 478.939 244.481 479.075 244.625C479.21 244.76 479.278 244.929 479.278 245.132C479.278 245.344 479.21 245.521 479.075 245.665C478.939 245.8 478.766 245.868 478.555 245.868ZM482.876 253.099L480.11 247.073H481.379L483.599 252.16H482.863L485.096 247.073H486.314L483.548 253.099H482.876ZM489.843 253.226C489.242 253.226 488.701 253.09 488.219 252.82C487.737 252.541 487.356 252.164 487.077 251.691C486.798 251.217 486.659 250.68 486.659 250.08C486.659 249.488 486.794 248.955 487.065 248.481C487.344 248.008 487.716 247.635 488.181 247.365C488.655 247.086 489.183 246.946 489.767 246.946C490.325 246.946 490.815 247.073 491.238 247.327C491.67 247.581 492.004 247.931 492.24 248.38C492.486 248.828 492.608 249.335 492.608 249.902C492.608 249.987 492.604 250.08 492.596 250.181C492.587 250.274 492.57 250.384 492.545 250.511H487.458V249.56H491.936L491.517 249.927C491.517 249.521 491.445 249.179 491.302 248.9C491.158 248.612 490.955 248.392 490.693 248.24C490.431 248.079 490.113 247.999 489.741 247.999C489.352 247.999 489.01 248.084 488.714 248.253C488.418 248.422 488.189 248.659 488.029 248.963C487.868 249.268 487.788 249.627 487.788 250.042C487.788 250.464 487.872 250.837 488.041 251.158C488.211 251.471 488.452 251.716 488.765 251.894C489.077 252.063 489.437 252.147 489.843 252.147C490.181 252.147 490.49 252.088 490.769 251.97C491.056 251.851 491.302 251.674 491.505 251.437L492.24 252.185C491.953 252.524 491.598 252.782 491.175 252.959C490.76 253.137 490.316 253.226 489.843 253.226ZM496.492 253.099V244.041H497.634V253.099H496.492ZM502.057 253.226C501.465 253.226 500.932 253.086 500.459 252.807C499.985 252.528 499.609 252.152 499.33 251.678C499.05 251.196 498.911 250.659 498.911 250.067C498.911 249.483 499.05 248.959 499.33 248.494C499.609 248.02 499.985 247.644 500.459 247.365C500.932 247.086 501.465 246.946 502.057 246.946C502.641 246.946 503.169 247.086 503.643 247.365C504.125 247.635 504.505 248.008 504.784 248.481C505.064 248.955 505.203 249.483 505.203 250.067C505.203 250.659 505.064 251.196 504.784 251.678C504.505 252.152 504.125 252.528 503.643 252.807C503.169 253.086 502.641 253.226 502.057 253.226ZM502.057 252.122C502.438 252.122 502.776 252.033 503.072 251.856C503.368 251.678 503.6 251.437 503.77 251.133C503.939 250.82 504.023 250.464 504.023 250.067C504.023 249.678 503.935 249.331 503.757 249.027C503.588 248.722 503.355 248.485 503.059 248.316C502.772 248.139 502.438 248.05 502.057 248.05C501.676 248.05 501.338 248.139 501.042 248.316C500.746 248.485 500.514 248.722 500.344 249.027C500.175 249.331 500.091 249.678 500.091 250.067C500.091 250.464 500.175 250.82 500.344 251.133C500.514 251.437 500.746 251.678 501.042 251.856C501.338 252.033 501.676 252.122 502.057 252.122ZM509.242 253.226C508.65 253.226 508.118 253.086 507.644 252.807C507.17 252.528 506.794 252.152 506.515 251.678C506.236 251.196 506.096 250.659 506.096 250.067C506.096 249.483 506.236 248.959 506.515 248.494C506.794 248.02 507.17 247.644 507.644 247.365C508.118 247.086 508.65 246.946 509.242 246.946C509.826 246.946 510.355 247.086 510.828 247.365C511.31 247.635 511.691 248.008 511.97 248.481C512.249 248.955 512.388 249.483 512.388 250.067C512.388 250.659 512.249 251.196 511.97 251.678C511.691 252.152 511.31 252.528 510.828 252.807C510.355 253.086 509.826 253.226 509.242 253.226ZM509.242 252.122C509.623 252.122 509.961 252.033 510.257 251.856C510.553 251.678 510.786 251.437 510.955 251.133C511.124 250.82 511.209 250.464 511.209 250.067C511.209 249.678 511.12 249.331 510.942 249.027C510.773 248.722 510.541 248.485 510.245 248.316C509.957 248.139 509.623 248.05 509.242 248.05C508.862 248.05 508.524 248.139 508.228 248.316C507.932 248.485 507.699 248.722 507.53 249.027C507.361 249.331 507.276 249.678 507.276 250.067C507.276 250.464 507.361 250.82 507.53 251.133C507.699 251.437 507.932 251.678 508.228 251.856C508.524 252.033 508.862 252.122 509.242 252.122ZM517.531 253.099L514.715 250.016L517.506 247.073H518.889L515.781 250.321L515.832 249.661L519.003 253.099H517.531ZM513.675 253.099V244.041H514.817V253.099H513.675ZM522.193 253.226C521.703 253.226 521.259 253.116 520.861 252.896C520.472 252.668 520.168 252.355 519.948 251.957C519.728 251.56 519.618 251.099 519.618 250.574V247.073H520.76V250.524C520.76 250.853 520.815 251.141 520.924 251.386C521.043 251.623 521.212 251.805 521.432 251.932C521.652 252.059 521.91 252.122 522.206 252.122C522.654 252.122 523.005 251.983 523.259 251.703C523.512 251.416 523.639 251.023 523.639 250.524V247.073H524.781V250.574C524.781 251.099 524.671 251.56 524.451 251.957C524.231 252.355 523.927 252.668 523.538 252.896C523.157 253.116 522.709 253.226 522.193 253.226ZM529.483 253.226C529.026 253.226 528.612 253.133 528.239 252.947C527.876 252.752 527.584 252.486 527.364 252.147C527.144 251.809 527.022 251.424 526.996 250.993V249.179C527.022 248.739 527.144 248.354 527.364 248.025C527.593 247.686 527.889 247.424 528.252 247.238C528.624 247.043 529.034 246.946 529.483 246.946C530.032 246.946 530.527 247.086 530.967 247.365C531.415 247.644 531.766 248.02 532.02 248.494C532.274 248.968 532.4 249.5 532.4 250.092C532.4 250.684 532.274 251.217 532.02 251.691C531.766 252.164 531.415 252.541 530.967 252.82C530.527 253.09 530.032 253.226 529.483 253.226ZM526.311 255.623V247.073H527.453V248.659L527.237 250.118L527.453 251.589V255.623H526.311ZM529.292 252.147C529.673 252.147 530.007 252.059 530.295 251.881C530.582 251.703 530.81 251.462 530.98 251.158C531.149 250.845 531.233 250.486 531.233 250.08C531.233 249.682 531.149 249.327 530.98 249.014C530.81 248.701 530.582 248.46 530.295 248.291C530.007 248.113 529.677 248.025 529.305 248.025C528.925 248.025 528.59 248.113 528.303 248.291C528.015 248.46 527.791 248.701 527.631 249.014C527.47 249.327 527.39 249.686 527.39 250.092C527.39 250.49 527.466 250.845 527.618 251.158C527.779 251.462 528.003 251.703 528.29 251.881C528.586 252.059 528.92 252.147 529.292 252.147Z" fill="#737373"/>
<path d="M286.356 268.6C287.412 268.6 288.28 268.816 288.96 269.248C289.64 269.672 289.988 270.304 290.004 271.144V271.288H287.52V271.24C287.52 271 287.432 270.8 287.256 270.64C287.08 270.48 286.812 270.4 286.452 270.4C286.1 270.4 285.828 270.452 285.636 270.556C285.452 270.66 285.36 270.788 285.36 270.94C285.36 271.156 285.488 271.316 285.744 271.42C286 271.524 286.412 271.632 286.98 271.744C287.644 271.88 288.188 272.024 288.612 272.176C289.044 272.32 289.42 272.56 289.74 272.896C290.06 273.232 290.224 273.688 290.232 274.264C290.232 275.24 289.9 275.964 289.236 276.436C288.58 276.908 287.7 277.144 286.596 277.144C285.308 277.144 284.304 276.928 283.584 276.496C282.872 276.064 282.516 275.3 282.516 274.204H285.024C285.024 274.62 285.132 274.9 285.348 275.044C285.564 275.18 285.9 275.248 286.356 275.248C286.692 275.248 286.968 275.212 287.184 275.14C287.408 275.068 287.52 274.92 287.52 274.696C287.52 274.496 287.396 274.348 287.148 274.252C286.908 274.148 286.512 274.04 285.96 273.928C285.288 273.784 284.732 273.636 284.292 273.484C283.852 273.324 283.468 273.064 283.14 272.704C282.812 272.344 282.648 271.856 282.648 271.24C282.648 270.336 282.996 269.672 283.692 269.248C284.396 268.816 285.284 268.6 286.356 268.6ZM295.736 276.808C295.408 277.696 295.004 278.368 294.524 278.824C294.052 279.288 293.388 279.52 292.532 279.52C292.012 279.52 291.552 279.448 291.152 279.304V277.876H292.112C292.712 277.876 293.068 277.584 293.18 277L290.66 270.664H293.228L294.44 274.876H294.524L295.64 270.664H297.992L295.736 276.808ZM301.728 270.52C302.576 270.52 303.292 270.688 303.876 271.024C304.468 271.352 304.764 271.864 304.764 272.56H302.544C302.544 272.328 302.44 272.164 302.232 272.068C302.088 271.988 301.908 271.948 301.692 271.948C301.116 271.948 300.828 272.084 300.828 272.356C300.828 272.508 300.928 272.616 301.128 272.68C301.328 272.744 301.656 272.812 302.112 272.884C302.672 272.964 303.14 273.06 303.516 273.172C303.892 273.276 304.22 273.468 304.5 273.748C304.78 274.02 304.92 274.404 304.92 274.9C304.92 275.708 304.616 276.284 304.008 276.628C303.408 276.972 302.62 277.144 301.644 277.144C301.084 277.144 300.556 277.068 300.06 276.916C299.564 276.756 299.16 276.512 298.848 276.184C298.536 275.856 298.38 275.44 298.38 274.936H300.6V274.984C300.608 275.256 300.72 275.448 300.936 275.56C301.16 275.664 301.396 275.716 301.644 275.716C302.308 275.716 302.64 275.56 302.64 275.248C302.64 275.088 302.536 274.972 302.328 274.9C302.12 274.828 301.78 274.752 301.308 274.672C300.74 274.576 300.272 274.472 299.904 274.36C299.544 274.248 299.228 274.06 298.956 273.796C298.684 273.524 298.548 273.148 298.548 272.668C298.548 271.892 298.84 271.34 299.424 271.012C300.016 270.684 300.784 270.52 301.728 270.52ZM310.276 270.664V272.284H308.932V274.696C308.932 274.984 308.98 275.196 309.076 275.332C309.172 275.46 309.348 275.524 309.604 275.524H310.276V276.928C310.084 276.992 309.836 277.044 309.532 277.084C309.228 277.124 308.964 277.144 308.74 277.144C308.036 277.144 307.492 277.016 307.108 276.76C306.732 276.504 306.544 276.068 306.544 275.452V272.284H305.656V270.664H306.64L307.156 268.744H308.932V270.664H310.276ZM314.66 270.52C315.82 270.52 316.704 270.792 317.312 271.336C317.928 271.88 318.236 272.712 318.236 273.832V274.24H313.484C313.484 274.696 313.584 275.04 313.784 275.272C313.992 275.504 314.316 275.62 314.756 275.62C315.156 275.62 315.448 275.536 315.632 275.368C315.824 275.2 315.92 274.976 315.92 274.696H318.236C318.236 275.464 317.944 276.064 317.36 276.496C316.776 276.928 315.924 277.144 314.804 277.144C313.628 277.144 312.716 276.872 312.068 276.328C311.42 275.776 311.096 274.944 311.096 273.832C311.096 272.744 311.412 271.92 312.044 271.36C312.676 270.8 313.548 270.52 314.66 270.52ZM314.756 272.044C314.004 272.044 313.584 272.4 313.496 273.112H315.824C315.824 272.784 315.728 272.524 315.536 272.332C315.352 272.14 315.092 272.044 314.756 272.044ZM327.8 270.52C328.52 270.52 329.06 270.728 329.42 271.144C329.78 271.552 329.96 272.136 329.96 272.896V277H327.572V273.184C327.572 272.912 327.504 272.696 327.368 272.536C327.24 272.368 327.056 272.284 326.816 272.284C326.536 272.284 326.308 272.38 326.132 272.572C325.956 272.764 325.868 273 325.868 273.28V277H323.48V273.184C323.48 272.912 323.412 272.696 323.276 272.536C323.148 272.368 322.964 272.284 322.724 272.284C322.444 272.284 322.216 272.38 322.04 272.572C321.864 272.764 321.776 273 321.776 273.28V277H319.388V270.664H321.344L321.5 271.612C321.74 271.276 322.056 271.012 322.448 270.82C322.848 270.62 323.268 270.52 323.708 270.52C324.66 270.52 325.3 270.884 325.628 271.612C325.876 271.276 326.192 271.012 326.576 270.82C326.968 270.62 327.376 270.52 327.8 270.52ZM340.184 268.744C340.696 268.744 341.152 268.864 341.552 269.104C341.952 269.336 342.264 269.66 342.488 270.076C342.712 270.484 342.824 270.944 342.824 271.456V271.612C342.824 272.124 342.712 272.588 342.488 273.004C342.264 273.42 341.952 273.748 341.552 273.988C341.152 274.22 340.696 274.336 340.184 274.336H338.204V277H335.552V268.744H340.184ZM338.204 272.404H339.296C339.576 272.404 339.784 272.332 339.92 272.188C340.064 272.044 340.136 271.848 340.136 271.6V271.504C340.136 271.248 340.064 271.052 339.92 270.916C339.784 270.772 339.576 270.7 339.296 270.7H338.204V272.404ZM347.004 270.52C348.164 270.52 349.048 270.792 349.656 271.336C350.272 271.88 350.58 272.712 350.58 273.832V274.24H345.828C345.828 274.696 345.928 275.04 346.128 275.272C346.336 275.504 346.66 275.62 347.1 275.62C347.5 275.62 347.792 275.536 347.976 275.368C348.168 275.2 348.264 274.976 348.264 274.696H350.58C350.58 275.464 350.288 276.064 349.704 276.496C349.12 276.928 348.268 277.144 347.148 277.144C345.972 277.144 345.06 276.872 344.412 276.328C343.764 275.776 343.44 274.944 343.44 273.832C343.44 272.744 343.756 271.92 344.388 271.36C345.02 270.8 345.892 270.52 347.004 270.52ZM347.1 272.044C346.348 272.044 345.928 272.4 345.84 273.112H348.168C348.168 272.784 348.072 272.524 347.88 272.332C347.696 272.14 347.436 272.044 347.1 272.044ZM355.584 270.508C355.768 270.508 355.932 270.532 356.076 270.58C356.22 270.62 356.292 270.644 356.292 270.652V272.656H355.524C355.028 272.656 354.668 272.784 354.444 273.04C354.228 273.296 354.12 273.676 354.12 274.18V277H351.732V270.664H353.688L353.844 271.624C353.988 271.256 354.216 270.98 354.528 270.796C354.84 270.604 355.192 270.508 355.584 270.508ZM359.644 268.156C359.82 268.156 360.04 268.18 360.304 268.228C360.568 268.268 360.78 268.316 360.94 268.372V269.776H360.388C360.132 269.776 359.956 269.824 359.86 269.92C359.764 270.016 359.716 270.18 359.716 270.412V270.664H360.94V272.284H359.716V277H357.328V272.284H356.44V270.664H357.328V270.4C357.328 269.584 357.528 269.008 357.928 268.672C358.328 268.328 358.9 268.156 359.644 268.156ZM364.805 270.52C365.917 270.52 366.789 270.804 367.421 271.372C368.061 271.932 368.381 272.752 368.381 273.832C368.381 274.912 368.061 275.736 367.421 276.304C366.789 276.864 365.917 277.144 364.805 277.144C363.693 277.144 362.821 276.864 362.189 276.304C361.557 275.744 361.241 274.92 361.241 273.832C361.241 272.744 361.557 271.92 362.189 271.36C362.821 270.8 363.693 270.52 364.805 270.52ZM364.805 272.14C364.021 272.14 363.629 272.592 363.629 273.496V274.18C363.629 275.076 364.021 275.524 364.805 275.524C365.597 275.524 365.993 275.076 365.993 274.18V273.496C365.993 272.592 365.597 272.14 364.805 272.14ZM373.385 270.508C373.569 270.508 373.733 270.532 373.877 270.58C374.021 270.62 374.093 270.644 374.093 270.652V272.656H373.325C372.829 272.656 372.469 272.784 372.245 273.04C372.029 273.296 371.921 273.676 371.921 274.18V277H369.533V270.664H371.489L371.645 271.624C371.789 271.256 372.017 270.98 372.329 270.796C372.641 270.604 372.993 270.508 373.385 270.508ZM383.874 270.52C384.594 270.52 385.134 270.728 385.494 271.144C385.854 271.552 386.034 272.136 386.034 272.896V277H383.646V273.184C383.646 272.912 383.578 272.696 383.442 272.536C383.314 272.368 383.13 272.284 382.89 272.284C382.61 272.284 382.382 272.38 382.206 272.572C382.03 272.764 381.942 273 381.942 273.28V277H379.554V273.184C379.554 272.912 379.486 272.696 379.35 272.536C379.222 272.368 379.038 272.284 378.798 272.284C378.518 272.284 378.29 272.38 378.114 272.572C377.938 272.764 377.85 273 377.85 273.28V277H375.462V270.664H377.418L377.574 271.612C377.814 271.276 378.13 271.012 378.522 270.82C378.922 270.62 379.342 270.52 379.782 270.52C380.734 270.52 381.374 270.884 381.702 271.612C381.95 271.276 382.266 271.012 382.65 270.82C383.042 270.62 383.45 270.52 383.874 270.52ZM390.594 270.52C391.562 270.52 392.35 270.684 392.958 271.012C393.566 271.332 393.87 271.856 393.87 272.584V275.056C393.87 275.192 393.902 275.304 393.966 275.392C394.03 275.48 394.126 275.524 394.254 275.524H394.686V276.904C394.662 276.92 394.598 276.948 394.494 276.988C394.398 277.02 394.258 277.052 394.074 277.084C393.89 277.124 393.678 277.144 393.438 277.144C392.974 277.144 392.59 277.076 392.286 276.94C391.99 276.796 391.786 276.6 391.674 276.352C391.37 276.592 391.03 276.784 390.654 276.928C390.278 277.072 389.838 277.144 389.334 277.144C387.846 277.144 387.102 276.552 387.102 275.368C387.102 274.752 387.266 274.284 387.594 273.964C387.93 273.636 388.41 273.412 389.034 273.292C389.658 273.172 390.474 273.112 391.482 273.112V272.8C391.482 272.552 391.394 272.364 391.218 272.236C391.05 272.108 390.83 272.044 390.558 272.044C390.31 272.044 390.094 272.088 389.91 272.176C389.734 272.264 389.646 272.404 389.646 272.596V272.644H387.294C387.286 272.604 387.282 272.548 387.282 272.476C387.282 271.876 387.566 271.4 388.134 271.048C388.71 270.696 389.53 270.52 390.594 270.52ZM391.482 274.24C390.802 274.24 390.298 274.316 389.97 274.468C389.65 274.612 389.49 274.808 389.49 275.056C389.49 275.456 389.762 275.656 390.306 275.656C390.618 275.656 390.89 275.572 391.122 275.404C391.362 275.236 391.482 275.028 391.482 274.78V274.24ZM399.834 270.52C400.57 270.52 401.122 270.724 401.49 271.132C401.858 271.54 402.042 272.128 402.042 272.896V277H399.654V273.184C399.654 272.912 399.582 272.696 399.438 272.536C399.302 272.368 399.106 272.284 398.85 272.284C398.554 272.284 398.314 272.38 398.13 272.572C397.946 272.764 397.854 273 397.854 273.28V277H395.466V270.664H397.422L397.578 271.624C397.826 271.288 398.15 271.02 398.55 270.82C398.958 270.62 399.386 270.52 399.834 270.52ZM406.746 270.52C407.786 270.52 408.626 270.744 409.266 271.192C409.914 271.632 410.238 272.308 410.238 273.22H407.922C407.922 272.5 407.53 272.14 406.746 272.14C405.962 272.14 405.57 272.592 405.57 273.496V274.18C405.57 275.076 405.978 275.524 406.794 275.524C407.61 275.524 408.018 275.156 408.018 274.42H410.238C410.238 275.34 409.914 276.024 409.266 276.472C408.626 276.92 407.786 277.144 406.746 277.144C405.634 277.144 404.762 276.864 404.13 276.304C403.498 275.744 403.182 274.92 403.182 273.832C403.182 272.744 403.498 271.92 404.13 271.36C404.762 270.8 405.634 270.52 406.746 270.52ZM414.75 270.52C415.91 270.52 416.794 270.792 417.402 271.336C418.018 271.88 418.326 272.712 418.326 273.832V274.24H413.574C413.574 274.696 413.674 275.04 413.874 275.272C414.082 275.504 414.406 275.62 414.846 275.62C415.246 275.62 415.538 275.536 415.722 275.368C415.914 275.2 416.01 274.976 416.01 274.696H418.326C418.326 275.464 418.034 276.064 417.45 276.496C416.866 276.928 416.014 277.144 414.894 277.144C413.718 277.144 412.806 276.872 412.158 276.328C411.51 275.776 411.186 274.944 411.186 273.832C411.186 272.744 411.502 271.92 412.134 271.36C412.766 270.8 413.638 270.52 414.75 270.52ZM414.846 272.044C414.094 272.044 413.674 272.4 413.586 273.112H415.914C415.914 272.784 415.818 272.524 415.626 272.332C415.442 272.14 415.182 272.044 414.846 272.044Z" fill="#737373"/>
</g>
<defs>
<filter id="filter0_i_139_1000" x="335.436" y="191.282" width="139.888" height="57.5933" filterUnits="userSpaceOnUse" color-interpolation-filters="sRGB">
<feFlood flood-opacity="0" result="BackgroundImageFix"/>
<feBlend mode="normal" in="SourceGraphic" in2="BackgroundImageFix" result="shape"/>
<feColorMatrix in="SourceAlpha" type="matrix" values="0 0 0 0 0 0 0 0 0 0 0 0 0 0 0 0 0 0 127 0" result="hardAlpha"/>
<feOffset dy="2"/>
<feGaussianBlur stdDeviation="3"/>
<feComposite in2="hardAlpha" operator="arithmetic" k2="-1" k3="1"/>
<feColorMatrix type="matrix" values="0 0 0 0 0 0 0 0 0 0 0 0 0 0 0 0 0 0 0.6 0"/>
<feBlend mode="normal" in2="shape" result="effect1_innerShadow_139_1000"/>
</filter>
<clipPath id="clip0_139_1000">
<rect width="700" height="334" fill="white"/>
</clipPath>
</defs>
</svg>
